/* XPM */
static char *_f3481fdd03c4823ba380352dc32b250pnxbE0WWvIBJULa1[] = {
/* columns rows colors chars-per-pixel */
"32 32 2 1 ",
"  c black",
". c LightGray",
/* pixels */
"                                ",
" ............... ...............",
" ............... ...............",
" ............... ...............",
" ............... ...............",
" ............... ...............",
" ............... ...............",
" ............... ...............",
"                                ",
"........ ............... .......",
"........ ............... .......",
"........ ............... .......",
"........ ............... .......",
"........ ............... .......",
"........ ............... .......",
"........ ............... .......",
"                                ",
" ............... ...............",
" ............... ...............",
" ............... ...............",
" ............... ...............",
" ............... ...............",
" ............... ...............",
" ............... ...............",
"                                ",
"........ ............... .......",
"........ ............... .......",
"........ ............... .......",
"........ ............... .......",
"........ ............... .......",
"........ ............... .......",
"........ ............... ......."
};
