/* XPM */
static char *c4d757f3966e46b48a3d71fe52ae5ac1oo5fEvqq2PpXuOkc[] = {
/* columns rows colors chars-per-pixel */
"32 32 104 2 ",
"   c black",
".  c #090C0B",
"X  c #120000",
"o  c #180000",
"O  c #1C0000",
"+  c #0C110E",
"@  c #0F1411",
"#  c #0F1812",
"$  c #11191C",
"%  c #101B1F",
"&  c #210100",
"*  c #250000",
"=  c #320000",
"-  c #340300",
";  c #350B01",
":  c #340F00",
">  c #381306",
",  c #3A1900",
"<  c #1C231E",
"1  c #152124",
"2  c #19282D",
"3  c #1B2A2D",
"4  c #2A332C",
"5  c #20363D",
"6  c #460400",
"7  c #430E00",
"8  c #5D0500",
"9  c #461C07",
"0  c #4B1A00",
"q  c #591100",
"w  c #591600",
"e  c #761B00",
"r  c #502701",
"t  c #572700",
"y  c #5C330D",
"u  c #603300",
"i  c #643401",
"p  c #783700",
"a  c #744102",
"s  c #73440F",
"d  c #724413",
"f  c #2F3F41",
"g  c #2D4248",
"h  c #384A4C",
"j  c #274950",
"k  c #435E65",
"l  c #405E67",
"z  c #4B5E60",
"x  c #5E7578",
"c  c #62777A",
"v  c #905803",
"b  c #90520F",
"n  c #85561B",
"m  c #A04300",
"M  c #8F730D",
"N  c #977F10",
"B  c #B5630D",
"V  c #A57428",
"C  c #998110",
"Z  c #A38B13",
"A  c #AC9319",
"S  c #BEA017",
"D  c #B8A21D",
"F  c #B9A31D",
"G  c #C9931B",
"H  c #C1AB19",
"J  c #C4B01B",
"K  c #C6B123",
"L  c #C4B025",
"P  c #D5C62F",
"I  c #E7D427",
"U  c #EBDB29",
"Y  c #EBDA2A",
"T  c #F0E330",
"R  c #C09149",
"E  c #E7B363",
"W  c #DECF7A",
"Q  c #E5D77D",
"!  c #E4D77E",
"~  c #F5E87F",
"^  c #5D8591",
"/  c #7B8D8E",
"(  c #6C8D96",
")  c #74B7C0",
"_  c #829799",
"`  c #9FB8BE",
"'  c #A3B2B3",
"]  c #FFD088",
"[  c #EDE082",
"{  c #FAF084",
"}  c #94D8DF",
"|  c #B7D5DA",
" . c #BCDBDF",
".. c #9DE1E7",
"X. c #B8EEF3",
"o. c #C0C9CB",
"O. c #CBE9EC",
"+. c #CCEAED",
"@. c #D0EEF1",
"#. c #DBF4F6",
"$. c #DEF6F8",
"%. c #FFFDF2",
"&. c #F1FDFE",
"*. c white",
/* pixels */
"D A A A A D K D A K K K A K P L P K D P T K K A A K K D A A A A ",
"K K D A A D P K K D P P K P T P T P T P T P K A K K P D D A D A ",
"A K P D W M K P P K P T P P *.*.*.*.*.T P P P K P T K D A D D K ",
"A D K T P W M K T P P *.*.*.*.5 1 O *.*.*.P P P T [ M K D L P D ",
"A A D K T P Q C P T *.*.9 * j ) % - * o *.*.P T [ M K L L P Y D ",
"D A A D P T T [ Z *.*.9 b j ..% - - - 6 o *.*.[ Z P P L P T D A ",
"A K K D D P T T *.*.> B j @.2 - 7 7 - - 6 o *.*.P T L P T K A A ",
"D D K P P L P T *.9 G p j X.% 7 p w w - - 6 X *.P T P T K D D K ",
"D Q M D T T T *.*.; B p j % - 7 b p w w - 6 o *.*.P T K W M C P ",
"D D Q M M T T *.; B p j #.% - p B p p w 7 - 6 X *.T [ C C T T K ",
"A K P P ~ S *.*.5 m w j O.% 7 p G B m e q 2 % % *.%.J T T P K D ",
"A A K T T T *.2 $.j 8 j } % 7 B G 2 2 % % ( l l % *.*.P P K D A ",
"A A A P T T *.2 |  .5 #.l % q 2 2  .` l g 1 % % - o *.P Y Y D D ",
"A D K K T *.*.w 5 ^ 5 &.g % %  .` l 1 % % - - & - o *.T P P P K ",
"D W M C J *.>   . 2 5 &.% g l 2 2 % .   7 w 7 & - o *.P P K K D ",
"D K P T T *.=   @ @ 5 +.% % 1 @ @ @ @   m p w 7 - X *.T T T P D ",
"A D K T T *.* m   < 5 +.1 -   4 < .   m p w * w - X %.Z Z M M D ",
"A A W M M *.* p m + 5 ` 1 7 p #   p w * o o w w - X *.P P P P D ",
"A D K P P *.  * p w 2 ` 1 w p p w * o r , * w 6 - o *.T T L D A ",
"D K P T T *.  : o 6 2 ^ 1 6 * * * d y n a * 6 6 X *.*.L D D A A ",
"K P T T P *.  u d * 2 l 1 * / / c f R V n * o X *.*.T T L L D A ",
"K K P L P *.*.u z / 2 g % / o.x z / f R V y r : *.P P P T P L D ",
"A D D P T P *.u x *.' % _ *.*.*.' _ f R V a i 0 *.T L P P K P K ",
"D D P { Z P *.s R x *.*.' x x z h f R R V v t *.*.P { H L P K K ",
"D P [ M P T *.*.s R x z z R R R R R R V v t *.*.T P P [ N L A K ",
"K [ M D T P P *.*.s E R R R V s R V V 0 0 *.*.P P T L L [ C D A ",
"D D D L P P P T *.s ] E R V n u u 0 0 *.*.*.P L P P P D L Q C D ",
"A D L P K L T P *.*.s u u 0 0 *.*.*.*.*.T P T P L D P P D D D D ",
"D D D K D L P P T *.*.*.*.*.*.*.P P T P T L P T P D D L P D A D ",
"A A A D L P P P L P T P T P P P T D P T P Y D P T L A D D L D A ",
"A A D D L D P L L D P P L K P L P K D L P P I D D L D A A A D D ",
"A A A D D A D D D L L L D A D L L D A D D L L D A D D A A A A D "
};
