/* XPM */
static char *d736bfe2d9bf43ede44251c4002a8714kDGvO3T5IAvDjwr6[] = {
/* columns rows colors chars-per-pixel */
"32 32 70 1 ",
"  c #190600",
". c #071013",
"X c #09181D",
"o c #101B1F",
"O c #141B1D",
"+ c #220900",
"@ c #2E1700",
"# c #382209",
"$ c #152124",
"% c #142428",
"& c #1A292D",
"* c #1B2A2D",
"= c #1B2A2E",
"- c #1B2D34",
"; c #203035",
": c #20363D",
"> c #4C360E",
", c #412A12",
"< c #58431D",
"1 c #77623E",
"2 c #213840",
"3 c #223E45",
"4 c #2D4248",
"5 c #36464A",
"6 c #2A4751",
"7 c #274950",
"8 c #2A4852",
"9 c #30535F",
"0 c #385E6C",
"q c #2E6370",
"w c #40575D",
"e c #41595F",
"r c #405E67",
"t c #476972",
"y c #566B70",
"u c #880F0A",
"i c #8D0F0B",
"p c #8B120D",
"a c #99130E",
"s c #A31711",
"d c #A01C13",
"f c #B11F15",
"g c #B3291E",
"h c #A32821",
"j c #BA3224",
"k c #C03427",
"l c #D34D3D",
"z c #FB755D",
"x c #9C845A",
"c c #FFA27E",
"v c #53828F",
"b c #42889F",
"n c #5D8591",
"m c #528A99",
"M c #74B7C0",
"N c #9FB8BE",
"B c #FFCC97",
"V c #8AC2C9",
"C c #BAD9DE",
"Z c #BCDBDF",
"A c #CCEAED",
"S c #CFECEF",
"D c #D2EFF2",
"F c #D6F2F5",
"G c #DBF4F6",
"H c #E0F7F9",
"J c #E4F9FB",
"K c #E8FAFC",
"L c #E8FBFC",
"P c #ECFCFD",
/* pixels */
"jjdjjddjjjjlllllllllljjdjjjddddd",
"jjdjlddjjjlllBBBBBBlljjdlljddddd",
"jldjldjjljllBB:2&&BBljjjlgljddjd",
"jldjldjjljllB2LZNr$Blljjlgljddjd",
"jldjldjjljllB2Mnr&oBlljjlaljddjj",
"jldjldljzjllBB:oooBBlljjlaljjdjj",
"jldjlgljzllllB ,# Bllljjlaljldjj",
"jljjlgljzllllB@1> Bllljllaljldlj",
"jljjlgljzllllB@x<+Bllljlzaljldlj",
"jljjzaljzllBBB@x<@BBBljlzazjldlj",
"zljlzaljzlBB&&&&&X..BBjlzazjldlj",
"zljlzaljzBB&vyw5t;98.BBlzazjldzj",
"zljlzaljzB&96;;;;%%%%.Blzazjzgzj",
"lzjgzazlzBBOO........BBlzazjzgzj",
"lzjgzazlzlBBB$eoq3oBBBzlzazlzgzj",
"lzlgzallzllzB&Noq4oBllzlzazlzgzl",
"lzlgzallzllzB:Z-b4oBllzlzazllgzl",
"lzlgzallzfllB:Zob4oBllflzazdlazl",
"lllgzallzlffB7J-mroBffllzazdlazl",
"lglazaflllflB7J-VroBlflllazdlazl",
"lglalalfflflB7F-VroBzflffazdlall",
"lglalalflffzB7H-SroBzfflfazdlall",
"lglalalfzzllB7H-CroBzlzzfazdlall",
"lglalallfzzzB7P-DroBzzzflaldlall",
"lglalallflczB7H-Dn$Bzclflalulall",
"kglalalllfzcB7H&Sn$Bczfllalulajl",
"kglalaffzzczB7D&CnoBczlzfululujl",
"kgkalikflzzcB7C2CnoBzlzlfajulujl",
"kgkilihkflzcB2S2ZnoBzzlflajajujl",
"kakilihhkflzB2L2ZnoBzlfllajajujj",
"kakilihhsllzB2G0NnoBzlzflajajujj",
"kakigphhkflzB2A0NnoBzzfllajajajj"
};
