/* XPM */
static char *_35c84df44c147e28b85511235896a2eREtopjbQO4e7kuMP[] = {
/* columns rows colors chars-per-pixel */
"32 32 94 2 ",
"   c #071013",
".  c #101B1F",
"X  c #141B1D",
"o  c #250F02",
"O  c #2D1502",
"+  c #2A1305",
"@  c #2F1404",
"#  c #2E1504",
"$  c #371C05",
"%  c #361E06",
"&  c #391D04",
"*  c #391E04",
"=  c #3B1E06",
"-  c #382209",
";  c #141F20",
":  c #142428",
">  c #1A292D",
",  c #1B2A2D",
"<  c #1A363E",
"1  c #203035",
"2  c #20363D",
"3  c #462807",
"4  c #462907",
"5  c #482A06",
"6  c #4E300B",
"7  c #4C360E",
"8  c #51320D",
"9  c #593A0C",
"0  c #5D3C0D",
"q  c #412A12",
"w  c #563613",
"e  c #5E3613",
"r  c #583913",
"t  c #5A3A1A",
"y  c #633B17",
"u  c #643D16",
"i  c #58431D",
"p  c #604113",
"a  c #654617",
"s  c #6E471B",
"d  c #674818",
"f  c #6F4721",
"g  c #754921",
"h  c #785020",
"j  c #7D5328",
"k  c #7D5937",
"l  c #77623E",
"z  c #042855",
"x  c #073466",
"c  c #2D4248",
"v  c #36464A",
"b  c #2A4852",
"n  c #124876",
"m  c #40575D",
"M  c #435E65",
"N  c #405E67",
"B  c #476972",
"V  c #81572B",
"C  c #845D28",
"Z  c #825D3A",
"A  c #8A6131",
"S  c #8F6636",
"D  c #85603A",
"F  c #89643C",
"G  c #956C3A",
"H  c #946C43",
"J  c #9A6E44",
"K  c #A57E48",
"L  c #A37D52",
"P  c #9C845A",
"I  c #B28C61",
"U  c #C4A478",
"Y  c #0F4F85",
"T  c #1D5E8D",
"R  c #1378C4",
"E  c #1E8EB8",
"W  c #3E8EB8",
"Q  c #53828F",
"!  c #5D8591",
"~  c #6C8D96",
"^  c #71A0AD",
"/  c #74B7C0",
"(  c #4DC9DD",
")  c #7CFFFF",
"_  c #9FB8BE",
"`  c #DEBD8F",
"'  c #EAC99C",
"]  c #B7D5DA",
"[  c #BCDBDF",
"{  c #9AFFFF",
"}  c #FFE7C6",
"|  c #D4F0F3",
" . c #E0F7F9",
".. c #E8FAFC",
/* pixels */
"T n z n z n n z n z n n z n n z n x T T T W W ) a } ' U I ' H j ",
"n n z n z n n z n z n T x T T x T x T T x W W ) p ' U I ' U j u ",
"n n z n z n n x T x T T x T T x W x T T x W ) ) 8 ` U I U H j % ",
"n n z n x T W x T x T T x T T x W T W T W W ) a } U F U I j u & ",
"n T x T x T W x T x T T x T W T W T W T W W ) p ' I D ' H s O ) ",
"T T x T x T W x T x T W x T W T W T W W ( ) ) 6 U G k H j % ) { ",
"T T x T x T W T W x T W x T W T W T W W ( ) p ' K t I j u & ) ( ",
"T T x T x T W T W T W W x W W T W ( W ) { ) 8 U K w H j O ) { ( ",
"T T x T T T W T W T W ( T W W W W ( ) ) a p 9 9 C u j u # ) ( W ",
"T W x W T W W T W T W ( T W ( W W { ) a } ' U K G h u O ) { ( W ",
"T W x W T W ( W W W W ( T W ( W ) { a ' U U K K K G u u + { ( W ",
"T W T W T W ( W ( W W ( W W ( ) ) p ' K K K K 9 C G j u o { ( T ",
"T W T W T W ( ) ) ) ) ( W W { ) p U K 5 9 5 & h G J A u O ) ( T ",
"T W T W W W ( ) > ; ) { W W { p U K 5 ) & e 3 h G d H u O ) ( T ",
"W ( T W W W ( ) > ^ ; { ) W { p 5 & ) 5 K y h h h r L j 3 { W T ",
"W ( T ( W W ( ) { ; Q ; ) ) { ) p 9 ) 9 U G g h 3 K j j 3 { W T ",
"W ( W ( W W ( ( { ) ; m ; ) { p ' U 9 U I C U K K f h # ) { W T ",
") { ) { ( W ( W ( ) ; v ; ) ) ) p U K G 5 U 3 U S Z G 5 ) ( W T ",
"2 2 2 ) { ) { W { ) ; 1 ; ) ( { ) 9 3 & U j 5 U V 3 K 9 { ( W T ",
" .[ ] 2 2 > ) ) { ; Q 1 ; { ( ) p ' U K G & U G & 9 U 9 { W W T ",
"> . ! ..[ _ 2 > . ; B ; ) ) ( { ) p 5 & # U G 5 ) p ' 9 { W W T ",
"_ _ > 2 . / | [ ~ ; b ; ) ) ) ( { { ) ) 9 K 5 ) ) ) 9 { ) W W T ",
"! ! _ ! / 2 > . N ; 1 ; % % ) ) { ( ( ) ) 0 ) ) ( { ) { W W W T ",
", . N N N ! ! N X m : ; q l % % ) ) { { ) ) { ( ( ( W ( W W T T ",
") ) > . . . c c   v ; - i i % l % % % ) ) ) ) ) ) ) ( W Y W T T ",
"( { ) ) { { . .   1 ; % - % - i l % P % % ) > 2 2 ) { W Y W T T ",
"( ( ( ( ( { {   v : ; ) % % % - % 7 i % l > | _ / 2 ) ( Y W T T ",
"( R W { ) ) ) X 1 ; { { ) ) ) % % % % % i > _ ! N . ) W Y W T T ",
"W R { {     X v : ; { ( ( W E { { ) ) ) % > N N N . ) W x W T T ",
"W Y )   < : 1 1   { { W Y W Y W ( ( ( { ) ) > . . ) ) W x T x n ",
"T Y ) )         ) { W W Y T Y T W W W ( ( { { ) ) ) W W x T z n ",
"T x W ) ) ) ) ) ) W W T x T x T T T T W W ( ( ( ( W W T x T z n "
};
