/* XPM */
static char *cefa1b3ff99c4700e0f674034898448f4niWRPddYHkEjlmQ[] = {
/* columns rows colors chars-per-pixel */
"32 32 102 2 ",
"   c black",
".  c #0C110E",
"X  c #00111B",
"o  c #07161B",
"O  c #0B171B",
"+  c #0B181B",
"@  c #101B1F",
"#  c #131F23",
"$  c #152124",
"%  c #142428",
"&  c #19282D",
"*  c #1B2A2D",
"=  c #1A2A2E",
"-  c #1A2C31",
";  c #1A363E",
":  c #203035",
">  c #20363D",
",  c #410000",
"<  c #670000",
"1  c #603C03",
"2  c #7B6009",
"3  c #002B41",
"4  c #003E54",
"5  c #213840",
"6  c #223D45",
"7  c #2D4248",
"8  c #36464A",
"9  c #274950",
"0  c #00586E",
"q  c #3D6875",
"w  c #40575D",
"e  c #435E65",
"r  c #405E67",
"t  c #566B70",
"y  c #860000",
"u  c #8A0000",
"i  c #B20000",
"p  c #C42506",
"a  c #D42000",
"s  c #866A0B",
"d  c #90750E",
"f  c #906118",
"g  c #FD460C",
"h  c #FD6E0C",
"j  c #998110",
"k  c #A48716",
"l  c #A38B13",
"z  c #AC9319",
"x  c #AD951A",
"c  c #AE961A",
"v  c #B79715",
"b  c #B89715",
"n  c #BEA217",
"m  c #B8A21D",
"M  c #B9A31D",
"N  c #B9A31E",
"B  c #C2AB19",
"V  c #C4B01B",
"C  c #C6B123",
"Z  c #C6B327",
"A  c #DEBF20",
"S  c #D5C62F",
"D  c #E3CD25",
"F  c #E7D525",
"G  c #E7D527",
"H  c #EBDB29",
"J  c #EBDC2B",
"K  c #F0E330",
"L  c #B88C47",
"P  c #D4C377",
"I  c #D8C878",
"U  c #D9C879",
"Y  c #DECF7A",
"T  c #DFD07A",
"R  c #E5D77D",
"E  c #F5E87F",
"W  c #197288",
"Q  c #508493",
"!  c #5D8591",
"~  c #6C8D96",
"^  c #74B7C0",
"/  c #77BDC7",
"(  c #9FB8BE",
")  c #E7C083",
"_  c #EDE082",
"`  c #F7EB80",
"'  c #FAF084",
"]  c #8AC2C9",
"[  c #BAD9DE",
"{  c #BCDBDF",
"}  c #FFE9C6",
"|  c #C1E2E6",
" . c #CBE9EC",
".. c #CFECEF",
"X. c #D6F2F5",
"o. c #DBF4F6",
"O. c #E1F8FA",
"+. c #EAFCFD",
"@. c #ECFCFD",
"#. c #FFFDF2",
"$. c #F1FDFE",
"%. c white",
/* pixels */
"c N F N C Z S K C S S K S K S H C z C H C K K S C k c c C H C c ",
"k c F F C C Z S K %.%.%.%.%.S K C N H S S K K C k c N K H C k k ",
"c k c J K C C S %.%.> > > %.%.K S S K S K K R s N S K C F k k k ",
"C N z D S K S %.%.@ ^ { X.* %.K S %.%.%.K _ j S S K H A k k N N ",
"c K H C F S K %.@ ( * ! ( * %.K %.%.5 %.#.l S K K ` v c N S K K ",
"k c S K S H %.%.* r ( * @ %.%.%.%.> ..* %.%.K ' B n C S K K S N ",
"C U v K K K %.* r @ @ @ %.%.%.%.> ..( Q @ %.#.V S S K K S S N c ",
"C S E n K K %.@ ! / * %.%.S %.> $.( ! r 7 @ %.S K K K S T d k k ",
"N S K ' V K %.@ ! ( @ %.%.%.%.> ..( r r 7 @ %.%.K _ j s s c c N ",
"c N S K ' V %.@ r ( ..* %.%.+ 8 ( r 8 8 + ! @ #.l l C C C C C C ",
"k P b Z S K %.@ 7 ! ( @ %.%.* + 8 8 + + * ! @ %.S S K K K K S C ",
"c N U B V S %.* $ @ * %.* %.* L + +   f * r @ %.K K S S C C C c ",
"C C H K K K %.@ ! { @ * ( $ 1 ) . L . L @ 7 @ %._ l j j c k k k ",
"S S S K K S %.@ r ( @ * ~ r 1 } } ) L f @ @ %.%.%.K K K C C N c ",
"C Y n n V K %.%.@ r @ 4 $ * u 1 ) L f 1 @ y $ @ %.%.%.S K K H H ",
"k k N S K K S %.%.@ $ 0 4 3 X 4 1 1 1 ! * i * r @ @ %.%.S S S S ",
"C S K K S R l K %.%.%.X W 6 X 0 4 3 3 * u @ ..( r 7 @ %.%.N C S ",
"S S S R d n K S S %.%.X 4 * @.X W 4 X ! X 3 @ ..( r 7 @ %.S N c ",
"N N U 2 H K _ l %.%., < * +.o.{ X X | r X 3 o O.( ( r @ %.%.S N ",
"k k c H S _ l %.%., u < * +.o.( ( ( ( r X 3 3 @ ..! 7 7 @ %.C S ",
"k N H S _ l %.%., a u < * o. .( ! ! ! r X 4 X 4 @ @ o o %.%.N C ",
"C S S S %.%.%., a u < , * [ ^ r r 7 7 r r X 4 X 4 3 X %.%.S C N ",
"S S %.%.%., , g a u , u * / * @ * @ @ q 7 7 6 X 0 4 3 X %.S S N ",
"%.%.%., , h g a u , a u < * ] ( ( ! ! * @ q @ < X W 4 X %.%.S S ",
"%., , h g a a u < , i < , < * 5 * @ @ r 7 @ u < X 0 4 X * %.%.C ",
", h g a a i u < , a u , u + t w 8 8 : @ @ + u < , X 5 ( ! @ %.S ",
"h g a a i u , , a i , a u + w 8 : : # O ; + i y , 5 ( * r @ %.S ",
"g a i i < , p a i u , i < 9 + : + % O + + $ y , %.5 { $ r @ %.S ",
"a i u , , g a u , , a u > O.! + ( + + ! 7 - y , 5 { ! r @ %.%.C ",
"i u , g a i u , g a i u 9 { + : + % + { ! 7 $ %.5 ( r @ %.%.S S ",
"u , g a i , , g a i u < * ( + 8 : : + X.! 7 $ %.* $ 7 @ %.C C S ",
"< g a i , g a a i u < < * ! + w 8 : + { ( ! 7 * ( ! * %.%.S N N "
};
