/* XPM */
static char *e84e7b3a89984f5184732e0a18fa7df70Qk5fRsiDhDROSOP[] = {
/* columns rows colors chars-per-pixel */
"32 32 70 1 ",
"  c black",
". c #0B181B",
"X c #101B1F",
"o c #3D0000",
"O c #152124",
"+ c #142428",
"@ c #1B2A2D",
"# c #203035",
"$ c #4F0000",
"% c #4F0200",
"& c #5A0400",
"* c #670700",
"= c #620A00",
"- c #6F1200",
"; c #7F2200",
": c #084C05",
"> c #0A4F06",
", c #0C6D08",
"< c #106709",
"1 c #12680B",
"2 c #213840",
"3 c #2D4248",
"4 c #36464A",
"5 c #2A4852",
"6 c #3A606B",
"7 c #40575D",
"8 c #435E65",
"9 c #405E67",
"0 c #476972",
"q c #8B0F00",
"w c #9F1D00",
"e c #A01600",
"r c #BA2501",
"t c #B72800",
"y c #B72900",
"u c #C53205",
"i c #D44502",
"p c #D04C00",
"a c #E05E0E",
"s c #E0751B",
"d c #13910B",
"f c #15920D",
"g c #248E18",
"h c #258F19",
"j c #2AC71B",
"k c #2BC81C",
"l c #49C033",
"z c #52EE38",
"x c #F28107",
"c c #FFAF2A",
"v c #FFD94F",
"b c #53828F",
"n c #5D8591",
"m c #528A99",
"M c #6C8D96",
"N c #71A0AD",
"B c #77BDC7",
"V c #6FCFD8",
"C c #9FB8BE",
"Z c #C2FD95",
"A c #C9FE98",
"S c #8AC2C9",
"D c #BAD9DE",
"F c #BCDBDF",
"G c #C1E2E6",
"H c #CFECEF",
"J c #D6F2F5",
"K c #E1F8FA",
"L c #E4F9FB",
"P c #ECFCFD",
/* pixels */
">>>,ggglgkgglzzzzlglzllg1gggg>,>",
">>1gfg<lllzlzzzzzzzlzlllll>gff1,",
">>1>gzl<lZAZAZAAAZZAAZZZl<lf1>j>",
">>1g<lzlZZ22222222@@OOOZZzzl>j1>",
">11gl<lAA2HPKJFFFCGCnB6OAZl<zg11",
"f11gllZZ2KD&&&---&;;;;C9@ZZzll11",
"f1ggllZ2KH&i&yxa-yxc;v;M9@Allg11",
"1fggglZ2P%qyi&pi-yp;vxx;m@Zllg11",
"1gzlglZ2L%%wya;y&w;cxp;;mXZlgggj",
"gglzlgZ2J%e&yiv-&-xxp;v;9XZlggzg",
"gg<lzlZ2L%qi&yxa-yxp;vx;mXZlgz<g",
"1ll<lzZ2P%qyi-pi-yp;cxx;9@Zlz<l1",
"fgll<lA2H%%wyi;y&w;cxp;;COZz<lg1",
"1zkgl<Z2H%e&wyc-&-xxp;v;CXA<lgg1",
"gllzzlZ2Hoqi&wxs-yxp;vx;FXZzzzzj",
"gl<<<dA2Foqyi-pi-yp;cxx;FXZ<<<<g",
"gglllzZ2Co%wyi;y&w;cxp;;CXZzlllg",
"1ggzz<Z2Coe&wic-&=xxp;v;CXZ<zgg1",
"1fzl<lA2Foqi-yxs.rip;cx;nXZl<zl1",
"fgl<zzZ2Coqyi-e.5.y&xxp*nXZll<zg",
"gg<zllZ@no%wiu.N4#.iip;*9XZlll<j",
"ggzgglZ@n%q-e.Nb40+.y-x*9XZlgggg",
"gfggllZZ@C%e.Nb 4 #+.y-COZZlgg1g",
"f11glllZ@Co.Nbb404##+.&9XZlllg11",
"111llllZ@n.Nb 440## ++.3XAzllg11",
">1gggllZZ@C.74405##++.9XZZlzgg11",
">1g1gl<lAZ@n.#5#++++.nXAZl<lz11>",
">>11g>lzlZA@n.......3XAZzll<gf>>",
">>1g>gjl<zAZ@CMSMVm3XZAl<zgg>g,>",
">>1ggfg>zzlZZ@@XXXXXZZzll<z1g1>,",
">>1>fggjjgllZZZAAZZAAlzgglgj>>>>",
">>>,11ff11glllzzzllzllkgg111f>>>"
};
